<svg width="35" height="46" viewBox="0 0 35 46" fill="none" xmlns="http://www.w3.org/2000/svg">
<path d="M0 5.67259H4.34522C4.34522 5.67259 6.9341 5.53132 8.57115 7.52211L18.0589 19.584H11.4011C11.4011 19.584 8.45092 19.7141 7.25579 17.6941L0 5.67259Z" fill="url(#paint0_linear_740_30470)"/>
<path d="M14.9484 30.5194L18.8552 37.0327C18.8552 37.0327 20.2911 40.3296 25.0348 40.3296H35L20.8882 23.1213L14.9484 24.489C14.9484 24.4886 13.3145 26.6597 14.9484 30.5194V30.5194Z" fill="url(#paint1_linear_740_30470)"/>
<path d="M23.0109 25.7122L20.7239 22.9176L14.9604 24.4887C14.9604 24.4887 13.3265 26.6598 14.9604 30.5195L15.2002 30.9313C15.181 30.676 15.0038 26.6932 23.0109 25.7122V25.7122Z" fill="url(#paint2_linear_740_30470)"/>
<path d="M15.1826 30.9208C15.1826 30.9208 13.3771 26.2398 19.2681 23.9976C19.2681 23.9976 23.4645 22.4836 26.2715 23.3811C26.2715 23.3811 26.0773 19.9614 19.1844 20.1855C19.1844 20.1855 15.5446 20.1576 12.6815 21.1668C12.6815 21.1668 9.65199 21.9795 11.9031 25.483L15.1826 30.9208Z" fill="url(#paint3_linear_740_30470)"/>
<defs>
<linearGradient id="paint0_linear_740_30470" x1="9.02944" y1="5.67037" x2="9.02944" y2="19.5856" gradientUnits="userSpaceOnUse">
<stop offset="0.033" stop-color="#19AADE"/>
<stop offset="0.951" stop-color="#134E8E"/>
</linearGradient>
<linearGradient id="paint1_linear_740_30470" x1="24.6111" y1="23.1213" x2="24.6111" y2="40.3296" gradientUnits="userSpaceOnUse">
<stop offset="0.132" stop-color="#E02527"/>
<stop offset="0.742" stop-color="#A1141C"/>
</linearGradient>
<linearGradient id="paint2_linear_740_30470" x1="14.2345" y1="26.9246" x2="23.0109" y2="26.9246" gradientUnits="userSpaceOnUse">
<stop offset="0.005" stop-color="#71251D"/>
<stop offset="0.742" stop-color="#C73127"/>
</linearGradient>
<linearGradient id="paint3_linear_740_30470" x1="11.0715" y1="25.5478" x2="26.2718" y2="25.5478" gradientUnits="userSpaceOnUse">
<stop offset="0.148" stop-color="#E8EBEE"/>
<stop offset="0.742" stop-color="#95A5AF"/>
</linearGradient>
</defs>
</svg>
