<svg width="35" height="46" viewBox="0 0 35 46" fill="none" xmlns="http://www.w3.org/2000/svg">
<path fill-rule="evenodd" clip-rule="evenodd" d="M17.5007 6.5195C8.7454 6.5195 1.58027 13.7228 1.58027 22.693C1.58027 31.6625 8.74604 38.8652 17.5007 38.8652C26.2546 38.8652 33.4197 31.6626 33.4197 22.693C33.4197 13.7228 26.2539 6.5195 17.5007 6.5195ZM0 22.693C0 12.9598 7.79547 5 17.5007 5C27.2038 5 35 12.9598 35 22.693C35 32.4256 27.2045 40.3847 17.5007 40.3847C7.79627 40.3847 0 32.4257 0 22.693Z" fill="#CF4037"/>
<path fill-rule="evenodd" clip-rule="evenodd" d="M22.5457 18.9803C21.7757 13.7328 17.2769 11.1418 14.4666 9.58962C11.8586 8.14998 9.52357 7.49579 9.46724 7.66454C12.4335 10.0098 14.3381 13.6634 14.3381 17.7684C14.3381 24.4999 9.213 30.0189 2.70197 30.5342L3.11365 31.1592C11.4491 29.8828 33.7556 25.8111 33.7556 25.8111L33.8148 25.3326L20.2814 24.877C21.775 23.3249 22.7977 20.69 22.5457 18.9803V18.9803Z" fill="#CF4037"/>
</svg>
