<svg width="24" height="24" viewBox="0 0 24 24" fill="none" xmlns="http://www.w3.org/2000/svg">
<path fill-rule="evenodd" clip-rule="evenodd" d="M7.42852 5.14286C7.27697 5.14286 7.13162 5.20306 7.02446 5.31022C6.91729 5.41739 6.85709 5.56273 6.85709 5.71429V8C6.85709 8.15155 6.91729 8.2969 7.02446 8.40406C7.13162 8.51122 7.27697 8.57143 7.42852 8.57143C7.58007 8.57143 7.72542 8.51122 7.83258 8.40406C7.93974 8.2969 7.99995 8.15155 7.99995 8V5.71429C7.99995 5.56273 7.93974 5.41739 7.83258 5.31022C7.72542 5.20306 7.58007 5.14286 7.42852 5.14286ZM7.42852 4C7.88318 4 8.31921 4.18061 8.6407 4.5021C8.96219 4.82359 9.1428 5.25963 9.1428 5.71429V8C9.1428 8.45466 8.96219 8.89069 8.6407 9.21218C8.31921 9.53367 7.88318 9.71429 7.42852 9.71429C6.97386 9.71429 6.53783 9.53367 6.21634 9.21218C5.89485 8.89069 5.71423 8.45466 5.71423 8V5.71429C5.71423 5.25963 5.89485 4.82359 6.21634 4.5021C6.53783 4.18061 6.97386 4 7.42852 4Z" fill="#303030"/>
<path fill-rule="evenodd" clip-rule="evenodd" d="M8 6.85713C8 6.54154 8.25584 6.28571 8.57143 6.28571H21.1429C21.4584 6.28571 21.7143 6.54154 21.7143 6.85713C21.7143 7.17273 21.4584 7.42856 21.1429 7.42856H8.57143C8.25584 7.42856 8 7.17273 8 6.85713Z" fill="#303030"/>
<path fill-rule="evenodd" clip-rule="evenodd" d="M2.28577 6.85713C2.28577 6.54154 2.5416 6.28571 2.8572 6.28571H6.28577C6.60136 6.28571 6.8572 6.54154 6.8572 6.85713C6.8572 7.17273 6.60136 7.42856 6.28577 7.42856H2.8572C2.5416 7.42856 2.28577 7.17273 2.28577 6.85713Z" fill="#303030"/>
<path fill-rule="evenodd" clip-rule="evenodd" d="M7.42852 16.5714C7.27697 16.5714 7.13162 16.6316 7.02446 16.7388C6.91729 16.846 6.85709 16.9913 6.85709 17.1429V19.4286C6.85709 19.5801 6.91729 19.7255 7.02446 19.8327C7.13162 19.9398 7.27697 20 7.42852 20C7.58007 20 7.72542 19.9398 7.83258 19.8327C7.93974 19.7255 7.99995 19.5801 7.99995 19.4286V17.1429C7.99995 16.9913 7.93974 16.846 7.83258 16.7388C7.72542 16.6316 7.58007 16.5714 7.42852 16.5714ZM6.21634 15.9307C6.53783 15.6092 6.97386 15.4286 7.42852 15.4286C7.88318 15.4286 8.31921 15.6092 8.6407 15.9307C8.96219 16.2522 9.1428 16.6882 9.1428 17.1429V19.4286C9.1428 19.8832 8.96219 20.3193 8.6407 20.6408C8.31921 20.9623 7.88317 21.1429 7.42852 21.1429C6.97386 21.1429 6.53783 20.9623 6.21634 20.6408C5.89485 20.3193 5.71423 19.8832 5.71423 19.4286V17.1429C5.71423 16.6882 5.89485 16.2522 6.21634 15.9307Z" fill="#303030"/>
<path fill-rule="evenodd" clip-rule="evenodd" d="M8 18.2857C8 17.9701 8.25584 17.7143 8.57143 17.7143H21.1429C21.4584 17.7143 21.7143 17.9701 21.7143 18.2857C21.7143 18.6013 21.4584 18.8572 21.1429 18.8572H8.57143C8.25584 18.8572 8 18.6013 8 18.2857Z" fill="#303030"/>
<path fill-rule="evenodd" clip-rule="evenodd" d="M2.28577 18.2857C2.28577 17.9701 2.5416 17.7143 2.8572 17.7143H6.28577C6.60136 17.7143 6.8572 17.9701 6.8572 18.2857C6.8572 18.6013 6.60136 18.8572 6.28577 18.8572H2.8572C2.5416 18.8572 2.28577 18.6013 2.28577 18.2857Z" fill="#303030"/>
<path fill-rule="evenodd" clip-rule="evenodd" d="M16.5715 10.8572C16.4199 10.8572 16.2746 10.9174 16.1674 11.0245C16.0602 11.1317 16 11.277 16 11.4286V13.7143C16 13.8658 16.0602 14.0112 16.1674 14.1184C16.2746 14.2255 16.4199 14.2857 16.5715 14.2857C16.723 14.2857 16.8684 14.2255 16.9755 14.1184C17.0827 14.0112 17.1429 13.8658 17.1429 13.7143V11.4286C17.1429 11.277 17.0827 11.1317 16.9755 11.0245C16.8684 10.9174 16.723 10.8572 16.5715 10.8572ZM16.5715 9.71429C17.0261 9.71429 17.4622 9.89491 17.7836 10.2164C18.1051 10.5379 18.2857 10.9739 18.2857 11.4286V13.7143C18.2857 14.169 18.1051 14.605 17.7836 14.9265C17.4622 15.248 17.0261 15.4286 16.5715 15.4286C16.1168 15.4286 15.6808 15.248 15.3593 14.9265C15.0378 14.605 14.8572 14.169 14.8572 13.7143V11.4286C14.8572 10.9739 15.0378 10.5379 15.3593 10.2164C15.6808 9.89491 16.1168 9.71429 16.5715 9.71429Z" fill="#303030"/>
<path fill-rule="evenodd" clip-rule="evenodd" d="M2.28577 12.5714C2.28577 12.2558 2.5416 12 2.8572 12H15.4286C15.7442 12 16.0001 12.2558 16.0001 12.5714C16.0001 12.887 15.7442 13.1429 15.4286 13.1429H2.8572C2.5416 13.1429 2.28577 12.887 2.28577 12.5714Z" fill="#303030"/>
<path fill-rule="evenodd" clip-rule="evenodd" d="M17.1428 12.5714C17.1428 12.2558 17.3987 12 17.7143 12H21.1428C21.4584 12 21.7143 12.2558 21.7143 12.5714C21.7143 12.887 21.4584 13.1429 21.1428 13.1429H17.7143C17.3987 13.1429 17.1428 12.887 17.1428 12.5714Z" fill="#303030"/>
</svg>
