<svg width="46" height="39" viewBox="0 0 46 39" fill="none" xmlns="http://www.w3.org/2000/svg">
<path d="M10.2322 26.9464C10.2322 28.413 10.8884 29.7297 11.9146 30.6464V32.7797C11.9146 34.163 13.0418 35.2797 14.4382 35.2797C15.8345 35.2797 16.9617 34.163 16.9617 32.7797V31.9464H30.4206V32.7797C30.4206 34.1464 31.5478 35.2797 32.9442 35.2797C34.3237 35.2797 35.4677 34.163 35.4677 32.7797V30.6464C36.494 29.7297 37.1501 28.413 37.1501 26.9464V10.2797C37.1501 4.44637 31.1272 3.61304 23.6912 3.61304C16.2551 3.61304 10.2322 4.44637 10.2322 10.2797V26.9464ZM16.1205 28.613C14.7242 28.613 13.597 27.4964 13.597 26.113C13.597 24.7297 14.7242 23.613 16.1205 23.613C17.5169 23.613 18.6441 24.7297 18.6441 26.113C18.6441 27.4964 17.5169 28.613 16.1205 28.613ZM31.2618 28.613C29.8654 28.613 28.7383 27.4964 28.7383 26.113C28.7383 24.7297 29.8654 23.613 31.2618 23.613C32.6582 23.613 33.7854 24.7297 33.7854 26.113C33.7854 27.4964 32.6582 28.613 31.2618 28.613ZM33.7854 18.613H13.597V10.2797H33.7854V18.613Z" fill="white"/>
</svg>
