<svg width="45" height="39" viewBox="0 0 45 39" fill="none" xmlns="http://www.w3.org/2000/svg">
<path d="M33.8984 11.0026C33.5832 10.1422 32.7007 9.5297 31.6606 9.5297H27.7207V8.07137C27.7207 7.26929 27.0116 6.61304 26.1448 6.61304H19.8411C18.9744 6.61304 18.2652 7.26929 18.2652 8.07137V9.5297H14.3254C13.2853 9.5297 12.4185 10.1422 12.0876 11.0026L8.98298 19.2714C8.87267 19.5776 8.80963 19.8985 8.80963 20.2339V30.6755C8.80963 31.886 9.8655 32.863 11.1735 32.863C12.4815 32.863 13.5374 31.886 13.5374 30.6755V29.9464H32.4485V30.6755C32.4485 31.8714 33.5044 32.863 34.8124 32.863C36.1047 32.863 37.1763 31.886 37.1763 30.6755V20.2339C37.1763 19.913 37.1133 19.5776 37.0029 19.2714L33.8984 11.0026ZM14.3254 25.5714C13.0174 25.5714 11.9615 24.5943 11.9615 23.3839C11.9615 22.1735 13.0174 21.1964 14.3254 21.1964C15.6334 21.1964 16.6893 22.1735 16.6893 23.3839C16.6893 24.5943 15.6334 25.5714 14.3254 25.5714ZM31.6606 25.5714C30.3525 25.5714 29.2967 24.5943 29.2967 23.3839C29.2967 22.1735 30.3525 21.1964 31.6606 21.1964C32.9686 21.1964 34.0244 22.1735 34.0244 23.3839C34.0244 24.5943 32.9686 25.5714 31.6606 25.5714ZM11.9615 18.2797L14.3254 11.7172H31.6606L34.0244 18.2797H11.9615Z" fill="white"/>
</svg>
