<svg width="45" height="39" viewBox="0 0 45 39" fill="none" xmlns="http://www.w3.org/2000/svg">
<path d="M32.5569 31.9002C32.502 30.7268 32.4293 29.5596 32.3711 28.3949C32.1829 24.7518 32.1984 21.0552 32.0015 17.394C31.8046 13.7602 31.9214 10.124 31.8175 6.49034C31.7966 5.73515 31.8303 4.24372 31.0489 3.81319C29.3679 2.88836 28.37 5.41097 27.9424 6.43797C27.1714 8.30211 26.726 10.2627 26.1754 12.194C25.7061 13.8471 25.1716 15.4948 24.9905 17.2064C24.8564 18.4907 24.8687 19.9284 25.5396 21.0856C25.8765 21.6672 26.459 22.063 27.1223 22.2303C27.8108 22.4065 28.5979 22.1759 29.2512 22.4867C29.4196 22.5681 29.5679 22.7372 29.6355 22.9079C29.8472 23.4582 29.6469 24.293 29.5807 24.8607C29.371 26.6894 29.1493 28.5363 29.0501 30.3738C28.9913 31.485 28.9264 32.9082 29.5987 33.8764C30.0107 34.4643 30.8458 35.0133 31.5992 34.7211C32.7254 34.2901 32.6037 32.834 32.5569 31.9002Z" fill="white"/>
<path d="M18.2303 4.62437C17.9067 4.75412 18.0294 5.91119 18.015 6.26671C17.9937 6.90542 18.0373 7.75056 17.9604 8.57833C17.9599 8.58573 17.9589 8.59087 17.9578 8.596C17.9511 8.65352 17.9457 8.71557 17.9362 8.78109C17.9261 8.84436 17.9154 8.90535 17.9077 8.96801C17.8387 9.37159 17.7074 9.84951 17.4591 10.0786C17.1773 10.3407 16.5457 10.2856 16.3264 9.97595C15.9675 9.47187 15.9945 8.34647 15.9727 8.31329C15.9581 7.78089 15.8805 6.1706 15.7641 5.10892C15.7545 5.02892 15.739 4.5477 15.2997 4.49628C15.0948 4.47402 14.8792 4.64862 14.8093 4.96752C14.603 5.90881 14.4097 7.70312 14.3975 7.98527C14.3951 8.0126 14.3939 8.04445 14.3937 8.07117C14.3937 8.07117 14.3926 8.0763 14.3933 8.07857C14.3919 8.13714 14.3222 9.54291 13.9664 10.0279C13.7805 10.2822 13.2978 10.4821 12.8181 10.2131C12.627 10.1048 12.4961 9.89599 12.4038 9.67238C11.9021 8.11103 12.3524 6.39099 12.4165 5.57138C12.4355 5.34085 12.6442 4.5712 12.1785 4.59694C11.4773 4.63504 10.5717 7.62272 10.4098 8.30749C10.0129 10.0113 9.95268 11.8319 10.6432 13.4754C11.0268 14.3856 11.777 15.1306 12.7074 15.4918C13.1186 15.65 13.5755 15.7648 14.0594 15.8314C13.8853 19.7048 13.6877 23.7468 13.5076 25.9962C13.3692 27.689 13.2058 29.4004 13.2277 31.1003C13.2407 32.1159 13.23 33.3269 13.8967 34.1784C14.5941 35.0681 16.065 34.6588 16.4621 33.6076C16.9076 32.4225 16.7781 31.0416 16.6264 28.8657C16.474 26.6876 16.3026 23.7163 16.2081 22.1177C16.0698 19.7637 16.0216 17.7067 16.0083 15.8299C17.2469 15.6529 18.4022 15.1214 19.0487 14.144C19.3324 13.7164 19.5191 13.2388 19.6467 12.7473C19.8424 12.0028 19.9377 11.1873 19.8955 10.4194C19.8525 9.71238 19.2715 4.20729 18.2303 4.62437Z" fill="white"/>
</svg>
