<svg width="35" height="46" viewBox="0 0 35 46" fill="none" xmlns="http://www.w3.org/2000/svg">
<path fill-rule="evenodd" clip-rule="evenodd" d="M34.7317 25.9754C34.9105 24.992 35.0003 23.9953 35 22.9966C35 22.3817 34.9658 21.8029 34.8998 21.2507C34.8857 21.131 32.89 25.1057 29.6969 27.6234C31.9182 25.6901 34.8156 20.646 34.7748 20.4273C34.7397 20.2375 34.7 20.0485 34.6559 19.8605C34.2741 18.2335 33.5856 16.7873 32.6473 15.2151C32.3566 18.5516 31.3406 22.1061 28.6747 25.1798C31.4414 21.9544 32.404 14.6083 31.7447 13.5966C29.0911 9.55464 23.5032 6.01697 17.521 6.01697L17.4789 6.12364V6.02444C11.4964 6.02444 5.909 9.5619 3.25531 13.6036C2.59584 14.6153 3.55845 21.9615 6.32515 25.1868C3.6595 22.1132 2.64327 18.5587 2.35273 15.2221C1.41384 16.7945 0.725742 18.2404 0.343988 19.8676C0.299808 20.0556 0.260134 20.2445 0.224998 20.4343C0.184195 20.653 3.08185 25.6971 5.30315 27.6304C2.10984 25.1125 0.114125 21.1378 0.0998118 21.2578C0.0318736 21.8374 -0.00143695 22.4203 4.74995e-05 23.0037C4.74995e-05 24.0199 0.0919074 25.0152 0.268151 25.9825C0.431149 26.8771 4.14251 29.3402 4.23864 29.4176C1.54287 28.3945 0.429867 26.7854 0.531127 27.1741C2.44481 34.5352 9.30675 39.9831 17.4789 39.9831V39.9754L17.521 39.9758C25.6931 39.9758 32.555 34.5283 34.4685 27.1668C34.57 26.7781 33.4572 28.3873 30.7612 29.4104C30.8571 29.3332 34.5685 26.8703 34.7317 25.9754V25.9754ZM23.1712 26.6291C22.9948 26.7036 22.8162 26.7677 22.6333 26.8159C20.9576 27.2594 18.6278 27.0965 17.5385 25.7141C16.4366 24.3158 16.7417 22.0476 17.5983 20.6159C18.4633 19.1705 19.7617 18.0963 20.9155 16.8798C21.4683 16.2995 22.0315 15.7285 22.6049 15.1673C22.977 14.8015 23.9926 14.0174 23.9717 13.4945C23.9621 13.2469 23.4989 12.8107 23.3701 12.5764C23.1823 12.235 23.065 11.893 22.864 11.5678C22.4192 10.8498 21.8222 10.5209 21.0181 10.3669C20.0129 10.1745 19.2919 10.2602 18.4594 10.8019C17.8331 11.2094 17.1811 11.9694 16.4161 12.0495C15.2074 12.1761 9.94379 13.0238 9.69449 13.177C10.3437 13.1303 18.2804 13.2795 19.1796 13.4945C20.2368 13.7473 20.189 14.5749 19.4712 15.2259C17.2138 17.2727 13.8884 18.4908 12.4708 21.3072C11.8077 22.6239 11.3824 23.5154 11.3807 25.0555C11.38 25.6901 11.4311 26.9923 12.2382 28.6093C12.2008 28.5855 10.9626 27.1668 10.9128 25.9667C7.92586 24.0264 6.40675 21.1247 6.40675 17.3486C6.40675 11.363 11.3554 6.51046 17.4599 6.51046C23.5643 6.51046 28.5128 11.3628 28.5128 17.3486C28.5132 21.2847 26.7811 24.9258 23.1712 26.6291V26.6291Z" fill="#B4282E"/>
<path fill-rule="evenodd" clip-rule="evenodd" d="M17.9381 29.9171L16.4962 33.7661C15.6649 35.9843 12.1366 35.5182 12.0125 35.5182C11.7226 35.5182 11.5009 35.4871 11.2791 35.2835L11.8072 34.7124C11.9331 34.8064 12.13 34.8612 12.3313 34.8612C12.4958 34.8612 14.3086 35.2434 14.8491 33.7661L16.2911 29.9171H17.9381V29.9171ZM28.1209 34.7437L27.8776 35.3931H22.9165L24.9682 29.9171H26.633L24.8242 34.7437H28.1209V34.7437ZM20.7249 29.9308L16.3295 35.4063H17.1832L18.2958 33.9201H20.2868L19.955 35.4063H21.7087L23.0556 29.9308H20.7249V29.9308ZM18.8751 33.1435L21.1428 30.4478L20.5181 33.1435H18.8751V33.1435Z" fill="white"/>
</svg>
