<svg width="119" height="24" viewBox="0 0 119 24" fill="none" xmlns="http://www.w3.org/2000/svg">
<line x1="5.51746" y1="11.8315" x2="109.642" y2="11.8316" stroke="#CCCCCC" stroke-dasharray="3 3"/>
<path d="M58.3887 21.75H57.0157C56.8777 21.75 56.742 21.7185 56.6209 21.6585C56.4997 21.5984 56.3971 21.5118 56.3224 21.4064C56.2476 21.301 56.2031 21.1803 56.193 21.0552C56.1828 20.9302 56.2073 20.8048 56.2642 20.6906L59.5889 14.0227L54.5967 13.9219L52.776 15.9267C52.4289 16.3233 52.1519 16.5 51.4453 16.5H50.521C50.3747 16.5043 50.2294 16.4764 50.0974 16.4188C49.9654 16.3612 49.8507 16.2755 49.7629 16.1691C49.6401 16.0186 49.5194 15.7636 49.637 15.3998L50.6593 12.0717C50.667 12.0469 50.6763 12.022 50.6866 11.9977C50.6871 11.9953 50.6871 11.9929 50.6866 11.9906C50.676 11.9663 50.6668 11.9414 50.6593 11.9161L49.636 8.56687C49.5251 8.21016 49.6463 7.96078 49.768 7.81406C49.8497 7.71549 49.9558 7.63573 50.0776 7.58118C50.1994 7.52664 50.3337 7.49883 50.4695 7.5H51.4453C51.9729 7.5 52.4851 7.71516 52.7863 8.0625L54.5694 10.0336L59.5889 9.96609L56.2652 3.30984C56.2082 3.19568 56.1837 3.07036 56.1937 2.94533C56.2038 2.8203 56.2481 2.69956 56.3228 2.59414C56.3974 2.48872 56.5 2.40198 56.621 2.34186C56.7421 2.28175 56.8777 2.25016 57.0157 2.25H58.4036C58.5973 2.25354 58.7875 2.29667 58.9603 2.3762C59.1331 2.45572 59.2839 2.5696 59.4017 2.70937L65.8514 9.83438L68.8311 9.76312C69.0492 9.75234 69.6537 9.74859 69.7935 9.74859C72.6437 9.75 74.3457 10.5909 74.3457 12C74.3457 12.4434 74.1508 13.2656 72.8464 13.7888C72.0763 14.0981 71.0489 14.2547 69.7925 14.2547C69.6542 14.2547 69.0513 14.2509 68.83 14.2402L65.8509 14.168L59.3852 21.293C59.2673 21.4321 59.1166 21.5454 58.9442 21.6246C58.7717 21.7037 58.5818 21.7465 58.3887 21.75V21.75Z" fill="#1262AE"/>
<path d="M9.80534 12.3315C9.80534 14.5355 8.0073 16.3315 5.77767 16.3315C3.54804 16.3315 1.75 14.5355 1.75 12.3315C1.75 10.1276 3.54804 8.33154 5.77767 8.33154C8.0073 8.33154 9.80534 10.1276 9.80534 12.3315Z" fill="white" stroke="#1262AE" stroke-width="2"/>
<path d="M117.75 11.9146C117.75 14.1185 115.952 15.9146 113.722 15.9146C111.493 15.9146 109.695 14.1185 109.695 11.9146C109.695 9.71061 111.493 7.91455 113.722 7.91455C115.952 7.91455 117.75 9.71061 117.75 11.9146Z" fill="white" stroke="#1262AE" stroke-width="2"/>
</svg>
