<svg width="119" height="24" viewBox="0 0 119 24" fill="none" xmlns="http://www.w3.org/2000/svg">
<line x1="5.01746" y1="11.8315" x2="109.142" y2="11.8316" stroke="#CCCCCC" stroke-dasharray="3 3"/>
<path d="M57.8887 21.75H56.5157C56.3778 21.75 56.242 21.7185 56.1209 21.6585C55.9998 21.5984 55.8972 21.5118 55.8224 21.4064C55.7477 21.301 55.7032 21.1803 55.693 21.0552C55.6829 20.9302 55.7074 20.8048 55.7643 20.6906L59.0889 14.0227L54.0968 13.9219L52.2761 15.9267C51.929 16.3233 51.652 16.5 50.9454 16.5H50.0211C49.8748 16.5043 49.7294 16.4764 49.5975 16.4188C49.4655 16.3612 49.3507 16.2755 49.2629 16.1691C49.1402 16.0186 49.0195 15.7636 49.1371 15.3998L50.1593 12.0717C50.1671 12.0469 50.1764 12.022 50.1867 11.9977C50.1872 11.9953 50.1872 11.9929 50.1867 11.9906C50.176 11.9663 50.1669 11.9414 50.1593 11.9161L49.136 8.56687C49.0251 8.21016 49.1463 7.96078 49.2681 7.81406C49.3498 7.71549 49.4559 7.63573 49.5777 7.58118C49.6995 7.52664 49.8337 7.49883 49.9695 7.5H50.9454C51.473 7.5 51.9852 7.71516 52.2864 8.0625L54.0694 10.0336L59.0889 9.96609L55.7653 3.30984C55.7083 3.19568 55.6837 3.07036 55.6938 2.94533C55.7038 2.8203 55.7482 2.69956 55.8229 2.59414C55.8975 2.48872 56 2.40198 56.1211 2.34186C56.2421 2.28175 56.3778 2.25016 56.5157 2.25H57.9037C58.0973 2.25354 58.2876 2.29667 58.4604 2.3762C58.6332 2.45572 58.784 2.5696 58.9017 2.70937L65.3515 9.83438L68.3311 9.76312C68.5493 9.75234 69.1538 9.74859 69.2936 9.74859C72.1437 9.75 73.8458 10.5909 73.8458 12C73.8458 12.4434 73.6508 13.2656 72.3464 13.7888C71.5764 14.0981 70.549 14.2547 69.2925 14.2547C69.1543 14.2547 68.5514 14.2509 68.3301 14.2402L65.351 14.168L58.8852 21.293C58.7674 21.4321 58.6167 21.5454 58.4442 21.6246C58.2717 21.7037 58.0819 21.7465 57.8887 21.75V21.75Z" fill="#1262AE"/>
<path d="M9.30534 12.3315C9.30534 14.5355 7.5073 16.3315 5.27767 16.3315C3.04804 16.3315 1.25 14.5355 1.25 12.3315C1.25 10.1276 3.04804 8.33154 5.27767 8.33154C7.5073 8.33154 9.30534 10.1276 9.30534 12.3315Z" fill="white" stroke="#1262AE" stroke-width="2"/>
<path d="M117.25 11.9146C117.25 14.1185 115.452 15.9146 113.222 15.9146C110.993 15.9146 109.195 14.1185 109.195 11.9146C109.195 9.71061 110.993 7.91455 113.222 7.91455C115.452 7.91455 117.25 9.71061 117.25 11.9146Z" fill="white" stroke="#1262AE" stroke-width="2"/>
</svg>
