<svg width="24" height="24" viewBox="0 0 24 24" fill="none" xmlns="http://www.w3.org/2000/svg">
<g clip-path="url(#clip0_740_29869)">
<path d="M12 21.8913C9.37669 21.8913 6.86079 20.8492 5.00582 18.9942C3.15084 17.1392 2.10872 14.6234 2.10872 12C2.10872 9.37669 3.15084 6.86079 5.00582 5.00582C6.86079 3.15084 9.37669 2.10872 12 2.10872C14.6234 2.10872 17.1392 3.15084 18.9942 5.00582C20.8492 6.86079 21.8913 9.37669 21.8913 12C21.8913 14.6234 20.8492 17.1392 18.9942 18.9942C17.1392 20.8492 14.6234 21.8913 12 21.8913ZM12 23.3044C14.9981 23.3044 17.8734 22.1134 19.9934 19.9934C22.1134 17.8734 23.3044 14.9981 23.3044 12C23.3044 9.00192 22.1134 6.12662 19.9934 4.00664C17.8734 1.88667 14.9981 0.695679 12 0.695679C9.00192 0.695679 6.12662 1.88667 4.00664 4.00664C1.88667 6.12662 0.695679 9.00192 0.695679 12C0.695679 14.9981 1.88667 17.8734 4.00664 19.9934C6.12662 22.1134 9.00192 23.3044 12 23.3044V23.3044Z" fill="#1262AF"/>
<path d="M9.47656 7.19992C9.60986 7.13127 9.75951 7.10074 9.90904 7.11166C10.0586 7.12259 10.2022 7.17456 10.3241 7.26185L16.0288 11.3366C16.1344 11.412 16.2205 11.5115 16.28 11.6269C16.3394 11.7423 16.3704 11.8702 16.3704 12C16.3704 12.1298 16.3394 12.2577 16.28 12.3731C16.2205 12.4885 16.1344 12.588 16.0288 12.6634L10.3241 16.7381C10.2022 16.8254 10.0587 16.8773 9.90923 16.8882C9.75977 16.8991 9.6102 16.8686 9.47694 16.8001C9.34369 16.7315 9.23192 16.6275 9.15393 16.4996C9.07593 16.3716 9.03473 16.2246 9.03485 16.0748V7.92522C9.03469 7.77541 9.07584 7.62845 9.15376 7.50049C9.23169 7.37253 9.34338 7.26853 9.47656 7.19992V7.19992Z" fill="#1262AF"/>
</g>
<defs>
<clipPath id="clip0_740_29869">
<rect width="24" height="24" fill="white"/>
</clipPath>
</defs>
</svg>
